:SAMPLES-PER-SECOND 30
:FULLY-SPECIFIED
:DEGREES
506
root  -3.35167 40.9547 0.417787 -6.38943 -84.9097 9.45178
RightUpLeg  3.23184 -2.34902 -2.63745
RightLeg  -4.14294 -23.2146 2.12296
RightFoot  -0.438327 -0.350478 3.67426
RightToes  -3.11842e-008 1.75238e-005 3.56266e-009
Spine  -2.95365 4.49041 5.27868
Spine1  -4.22935 5.72976 -10.8633
HEad  -12.4938 -16.4236 6.88253
LeftShoulder1  2.7846 -5.01525 -26.5797
LeftArm  -10.8726 38.4269 -44.6267
LeftForeArm  134.769 -62.2726 -157.835
LeftHand  0.154258 -4.40003 -1.54489
RightShoulder  2.64084 6.00458 21.4995
RightArm  -36.9627 30.3382 34.873
RightForeArm  -49.2717 53.6376 18.141
RightHand  -0.124041 -2.14901 -3.93501
LeftUpLeg  0.752606 -0.0195979 1.32077
LeftLeg  -4.14162 10.7194 -1.12366
LeftFoot  1.25189 0.248755 -2.35875
LeftToes  4.7713e-008 1.46693e-008 1.32589e-009
507
root  -3.37288 40.9495 0.399912 -6.57608 -84.7591 9.28906
RightUpLeg  3.60738 -2.38278 -2.60101
RightLeg  -4.00211 -23.3469 2.03593
RightFoot  -0.546611 -0.348018 3.64871
RightToes  -3.11842e-008 1.75238e-005 3.56266e-009
Spine  -4.12659 4.11824 4.19372
Spine1  -2.06126 5.38778 -9.41692
HEad  -12.8716 -15.7761 6.97253
LeftShoulder1  2.78029 -4.93384 -26.8492
LeftArm  -10.1929 37.7543 -44.0981
LeftForeArm  134.638 -62.4993 -157.623
LeftHand  0.102535 -4.21392 -0.964836
RightShoulder  2.68558 5.95034 22.176
RightArm  -31.7347 25.3305 36.6615
RightForeArm  -43.9848 58.9424 21.9713
RightHand  -0.202075 -0.970764 -5.21222
LeftUpLeg  1.10228 0.058536 1.35239
LeftLeg  -4.03254 10.5106 -1.0922
LeftFoot  1.16418 0.244952 -2.29823
LeftToes  4.7713e-008 1.46693e-008 1.32589e-009
508
root  -3.40528 40.9465 0.367888 -5.69846 -84.4594 7.81213
RightUpLeg  4.45629 -2.40795 -2.46465
RightLeg  -4.24562 -23.5969 2.15966
RightFoot  -0.592162 -0.347489 3.65369
RightToes  -3.11842e-008 1.75238e-005 3.56266e-009
Spine  -4.80926 3.75565 3.29066
Spine1  -0.20152 5.03039 -8.21724
HEad  -13.2904 -15.2598 7.31201
LeftShoulder1  2.88262 -5.1266 -27.3191
LeftArm  -9.55501 37.0958 -43.3938
LeftForeArm  134.979 -62.8124 -157.368
LeftHand  0.0763151 -4.47383 -0.615036
RightShoulder  2.82715 6.0334 23.4804
RightArm  -26.5171 18.5777 37.7751
RightForeArm  -35.3695 64.001 27.1493
RightHand  -0.140485 -1.39541 -3.91244
LeftUpLeg  1.62767 0.319851 1.54956
LeftLeg  -3.74192 9.89924 -1.04675
LeftFoot  0.961352 0.250579 -2.38486
LeftToes  4.7713e-008 1.46693e-008 1.32589e-009
509
root  -3.41489 40.9424 0.341508 -6.13882 -84.2715 7.64795
RightUpLeg  5.09763 -2.53956 -2.47436
RightLeg  -4.10253 -23.6104 2.13642
RightFoot  -0.772134 -0.343804 3.60981
RightToes  -3.11842e-008 1.75238e-005 3.56266e-009
Spine  -5.08432 3.4611 2.44391
Spine1  1.24869 4.71503 -7.14645
HEad  -13.6295 -15.0868 6.86292
LeftShoulder1  2.85883 -5.02165 -27.453
LeftArm  -9.01155 36.1487 -43.7123
LeftForeArm  135.261 -63.5965 -156.665
LeftHand  0.0445315 -4.61299 -0.222727
RightShoulder  3.12736 6.48427 25.2385
RightArm  -21.7352 11.1658 38.0368
RightForeArm  -26.7957 68.7958 34.498
RightHand  -0.154944 -0.705525 -3.74387
LeftUpLeg  2.23373 0.434859 1.59283
LeftLeg  -3.64463 9.55719 -0.996054
LeftFoot  0.890134 0.245764 -2.30962
LeftToes  4.7713e-008 1.46693e-008 1.32589e-009
510
root  -3.42151 40.9378 0.314131 -6.39328 -84.1833 7.53256
RightUpLeg  5.49654 -2.58528 -2.44317
RightLeg  -4.04323 -23.6515 2.11405
RightFoot  -0.857755 -0.341027 3.57969
RightToes  -3.11842e-008 1.75238e-005 3.56266e-009
Spine  -5.56632 3.1745 1.57658
Spine1  2.64093 4.35754 -6.01152
HEad  -13.8954 -14.0963 6.75091
LeftShoulder1  2.83292 -4.97746 -27.3183
LeftArm  -8.80299 36.0332 -44.3705
LeftForeArm  134.35 -63.9607 -156.222
LeftHand  0.0269026 -3.96761 -0.0662413
RightShoulder  3.46389 6.89986 27.3045
RightArm  -18.6258 4.48062 38.5211
RightForeArm  -16.6827 71.7315 41.3105
RightHand  -0.0605526 -0.339327 -1.38707
LeftUpLeg  2.58461 0.547864 1.65645
LeftLeg  -3.53592 9.34141 -0.980127
LeftFoot  0.816497 0.246127 -2.31541
LeftToes  4.7713e-008 1.46693e-008 1.32589e-009
